
<svg>
<symbol id="twitter"  viewBox="0 0 32 32"  xmlns="http://www.w3.org/2000/svg">

<path fill-rule="evenodd" clip-rule="evenodd" d="M0 16C0 24.8202 7.17648 32 16 32C24.8202 32 32 24.8202 32 16C32 7.17982 24.8202 0 16 0C7.17984 0 0 7.17982 0 16ZM5.94191 4.96936C8.59784 2.54552 12.1292 1.06554 16 1.06554C19.8696 1.06554 23.4 2.54462 26.0557 4.96715L24.8681 6.1547C22.5199 4.03823 19.4105 2.75 16 2.75C12.5883 2.75 9.47794 4.03912 7.12944 6.15689L5.94191 4.96936ZM4.96751 5.94395C2.54476 8.59964 1.06554 12.1302 1.06554 16C1.06554 19.8694 2.54451 23.3997 4.96688 26.0553L6.15441 24.8678C4.03812 22.5196 2.75 19.4104 2.75 16C2.75 12.5893 4.03837 9.47974 6.15505 7.13149L4.96751 5.94395ZM5.94122 27.03C8.59723 29.4542 12.1289 30.9344 16 30.9344C19.8692 30.9344 23.3992 29.4557 26.0548 27.0337L24.8672 25.8461C22.5191 27.9621 19.4101 29.25 16 29.25C12.5879 29.25 9.47731 27.9606 7.12874 25.8425L5.94122 27.03ZM30.9345 16C30.9345 19.8714 29.454 23.4033 27.0295 26.0593L25.842 24.8718C27.9604 22.5232 29.25 19.4123 29.25 16C29.25 12.5881 27.9607 9.47761 25.8428 7.12907L27.0303 5.94154C29.4543 8.5975 30.9345 12.129 30.9345 16Z" />
<path d="M21.3116 13.5386V13.9128C21.3116 17.6814 18.5585 22.0001 13.5206 22.0001C12.0334 22.0034 10.5778 21.5546 9.33325 20.709C9.54939 20.7394 9.76741 20.7532 9.9855 20.7501C11.2183 20.7536 12.4164 20.3266 13.3873 19.5376C12.8146 19.5288 12.2591 19.3328 11.7998 18.9774C11.3404 18.622 11.0007 18.1253 10.8287 17.5579C10.9993 17.5954 11.1733 17.6143 11.3477 17.614C11.5912 17.6141 11.8336 17.5801 12.0684 17.513C11.4481 17.3846 10.89 17.0363 10.4896 16.5277C10.0893 16.0191 9.87161 15.3818 9.87379 14.7249V14.6875C10.2533 14.9077 10.6788 15.0284 11.1134 15.0393C10.5349 14.6439 10.1236 14.0341 9.96351 13.3343C9.80344 12.6346 9.90669 11.8978 10.2522 11.2745C10.9406 12.1537 11.7994 12.8727 12.7729 13.3846C13.7464 13.8966 14.8128 14.19 15.9026 14.2459C15.8487 14.0335 15.8232 13.8144 15.8269 13.5947C15.8067 13.0143 15.9591 12.4414 16.2636 11.9541C16.5681 11.4669 17.0097 11.0889 17.5285 10.8717C18.0472 10.6545 18.6178 10.6086 19.1626 10.7403C19.7074 10.872 20.1998 11.1748 20.5729 11.6075C21.1861 11.479 21.7744 11.245 22.3134 10.9152C22.109 11.5856 21.6742 12.1544 21.0918 12.5132C21.6358 12.4353 22.1662 12.2765 22.6666 12.0417C22.3039 12.6201 21.8451 13.127 21.3116 13.5386Z" fill="#110A1D"/>

</symbol>
<symbol id="facebook"  viewBox="0 0 32 32"  xmlns="http://www.w3.org/2000/svg">

<path fill-rule="evenodd" clip-rule="evenodd" d="M0 16C0 24.8202 7.17648 32 16 32C24.8202 32 32 24.8202 32 16C32 7.17982 24.8202 0 16 0C7.17984 0 0 7.17982 0 16ZM5.94191 4.96936C8.59784 2.54552 12.1292 1.06554 16 1.06554C19.8696 1.06554 23.4 2.54462 26.0557 4.96715L24.8681 6.1547C22.5199 4.03823 19.4105 2.75 16 2.75C12.5883 2.75 9.47794 4.03912 7.12944 6.15689L5.94191 4.96936ZM4.96751 5.94395C2.54476 8.59964 1.06554 12.1302 1.06554 16C1.06554 19.8694 2.54451 23.3997 4.96688 26.0553L6.15441 24.8678C4.03812 22.5196 2.75 19.4104 2.75 16C2.75 12.5893 4.03837 9.47974 6.15505 7.13149L4.96751 5.94395ZM5.94122 27.03C8.59723 29.4542 12.1289 30.9344 16 30.9344C19.8692 30.9344 23.3992 29.4557 26.0548 27.0337L24.8672 25.8461C22.5191 27.9621 19.4101 29.25 16 29.25C12.5879 29.25 9.47731 27.9606 7.12874 25.8425L5.94122 27.03ZM30.9345 16C30.9345 19.8714 29.454 23.4033 27.0295 26.0593L25.842 24.8718C27.9604 22.5232 29.25 19.4123 29.25 16C29.25 12.5881 27.9607 9.47761 25.8428 7.12907L27.0303 5.94154C29.4543 8.5975 30.9345 12.129 30.9345 16Z"/>
<path d="M18.0732 11.5468H19.3266V9.42685C18.7197 9.36375 18.11 9.33259 17.4999 9.33352C15.6866 9.33352 14.4466 10.4402 14.4466 12.4668V14.2135H12.3999V16.5868H14.4466V22.6668H16.8999V16.5868H18.9399L19.2466 14.2135H16.8999V12.7002C16.8999 12.0002 17.0866 11.5468 18.0732 11.5468Z" fill="#110A1D"/>

</symbol>
	<symbol id="instagram"  viewBox="0 0 32 32"  xmlns="http://www.w3.org/2000/svg">

<path fill-rule="evenodd" clip-rule="evenodd" d="M0 16C0 24.8202 7.17648 32 16 32C24.8202 32 32 24.8202 32 16C32 7.17982 24.8202 0 16 0C7.17984 0 0 7.17982 0 16ZM5.94191 4.96936C8.59784 2.54552 12.1292 1.06554 16 1.06554C19.8696 1.06554 23.4 2.54462 26.0557 4.96715L24.8681 6.1547C22.5199 4.03823 19.4105 2.75 16 2.75C12.5883 2.75 9.47794 4.03912 7.12944 6.15689L5.94191 4.96936ZM4.96751 5.94395C2.54476 8.59964 1.06554 12.1302 1.06554 16C1.06554 19.8694 2.54451 23.3997 4.96688 26.0553L6.15441 24.8678C4.03812 22.5196 2.75 19.4104 2.75 16C2.75 12.5893 4.03837 9.47974 6.15505 7.13149L4.96751 5.94395ZM5.94122 27.03C8.59723 29.4542 12.1289 30.9344 16 30.9344C19.8692 30.9344 23.3992 29.4557 26.0548 27.0337L24.8672 25.8461C22.5191 27.9621 19.4101 29.25 16 29.25C12.5879 29.25 9.47731 27.9606 7.12874 25.8425L5.94122 27.03ZM30.9345 16C30.9345 19.8714 29.454 23.4033 27.0295 26.0593L25.842 24.8718C27.9604 22.5232 29.25 19.4123 29.25 16C29.25 12.5881 27.9607 9.47761 25.8428 7.12907L27.0303 5.94154C29.4543 8.5975 30.9345 12.129 30.9345 16Z"/>
<path d="M16 9.5C17.766 9.5 17.9864 9.5065 18.6793 9.539C19.3715 9.5715 19.8428 9.68005 20.2575 9.84125C20.6865 10.0064 21.0479 10.2299 21.4093 10.5907C21.7398 10.9156 21.9956 11.3087 22.1587 11.7425C22.3193 12.1565 22.4285 12.6284 22.461 13.3207C22.4915 14.0136 22.5 14.2339 22.5 16C22.5 17.766 22.4935 17.9864 22.461 18.6793C22.4285 19.3715 22.3193 19.8428 22.1587 20.2575C21.996 20.6916 21.7402 21.0847 21.4093 21.4093C21.0843 21.7397 20.6912 21.9954 20.2575 22.1587C19.8434 22.3193 19.3715 22.4285 18.6793 22.461C17.9864 22.4915 17.766 22.5 16 22.5C14.2339 22.5 14.0136 22.4935 13.3207 22.461C12.6284 22.4285 12.1572 22.3193 11.7425 22.1587C11.3085 21.9959 10.9154 21.7401 10.5907 21.4093C10.2601 21.0844 10.0044 20.6914 9.84125 20.2575C9.68005 19.8434 9.5715 19.3715 9.539 18.6793C9.50845 17.9864 9.5 17.766 9.5 16C9.5 14.2339 9.5065 14.0136 9.539 13.3207C9.5715 12.6278 9.68005 12.1572 9.84125 11.7425C10.0039 11.3084 10.2597 10.9153 10.5907 10.5907C10.9155 10.26 11.3086 10.0042 11.7425 9.84125C12.1572 9.68005 12.6278 9.5715 13.3207 9.539C14.0136 9.50845 14.2339 9.5 16 9.5ZM16 12.75C15.138 12.75 14.3114 13.0924 13.7019 13.7019C13.0924 14.3114 12.75 15.138 12.75 16C12.75 16.862 13.0924 17.6886 13.7019 18.2981C14.3114 18.9076 15.138 19.25 16 19.25C16.862 19.25 17.6886 18.9076 18.2981 18.2981C18.9076 17.6886 19.25 16.862 19.25 16C19.25 15.138 18.9076 14.3114 18.2981 13.7019C17.6886 13.0924 16.862 12.75 16 12.75ZM20.225 12.5875C20.225 12.372 20.1394 12.1653 19.987 12.013C19.8347 11.8606 19.628 11.775 19.4125 11.775C19.197 11.775 18.9903 11.8606 18.838 12.013C18.6856 12.1653 18.6 12.372 18.6 12.5875C18.6 12.803 18.6856 13.0097 18.838 13.162C18.9903 13.3144 19.197 13.4 19.4125 13.4C19.628 13.4 19.8347 13.3144 19.987 13.162C20.1394 13.0097 20.225 12.803 20.225 12.5875ZM16 14.05C16.5172 14.05 17.0132 14.2554 17.3789 14.6211C17.7446 14.9868 17.95 15.4828 17.95 16C17.95 16.5172 17.7446 17.0132 17.3789 17.3789C17.0132 17.7446 16.5172 17.95 16 17.95C15.4828 17.95 14.9868 17.7446 14.6211 17.3789C14.2554 17.0132 14.05 16.5172 14.05 16C14.05 15.4828 14.2554 14.9868 14.6211 14.6211C14.9868 14.2554 15.4828 14.05 16 14.05Z" fill="#110A1D"/>

</symbol>
<symbol id="linkedin"  viewBox="0 0 32 32"  xmlns="http://www.w3.org/2000/svg">

<path fill-rule="evenodd" clip-rule="evenodd" d="M0 16C0 24.8202 7.17648 32 16 32C24.8202 32 32 24.8202 32 16C32 7.17982 24.8202 0 16 0C7.17984 0 0 7.17982 0 16ZM5.94191 4.96936C8.59784 2.54552 12.1292 1.06554 16 1.06554C19.8696 1.06554 23.4 2.54462 26.0557 4.96715L24.8681 6.1547C22.5199 4.03823 19.4105 2.75 16 2.75C12.5883 2.75 9.47794 4.03912 7.12944 6.15689L5.94191 4.96936ZM4.96751 5.94395C2.54476 8.59964 1.06554 12.1302 1.06554 16C1.06554 19.8694 2.54451 23.3997 4.96688 26.0553L6.15441 24.8678C4.03812 22.5196 2.75 19.4104 2.75 16C2.75 12.5893 4.03837 9.47974 6.15505 7.13149L4.96751 5.94395ZM5.94122 27.03C8.59723 29.4542 12.1289 30.9344 16 30.9344C19.8692 30.9344 23.3992 29.4557 26.0548 27.0337L24.8672 25.8461C22.5191 27.9621 19.4101 29.25 16 29.25C12.5879 29.25 9.47731 27.9606 7.12874 25.8425L5.94122 27.03ZM30.9345 16C30.9345 19.8714 29.454 23.4033 27.0295 26.0593L25.842 24.8718C27.9604 22.5232 29.25 19.4123 29.25 16C29.25 12.5881 27.9607 9.47761 25.8428 7.12907L27.0303 5.94154C29.4543 8.5975 30.9345 12.129 30.9345 16Z"/>
<path d="M9.875 10.7524C9.875 10.2678 10.2777 9.875 10.7746 9.875H21.2254C21.7223 9.875 22.125 10.2678 22.125 10.7524V21.2476C22.125 21.7322 21.7223 22.125 21.2254 22.125H10.7746C10.2777 22.125 9.875 21.7322 9.875 21.2476V10.7524ZM13.6595 20.1298V14.5981H11.8212V20.1298H13.6595ZM12.7407 13.8425C13.3816 13.8425 13.7805 13.4183 13.7805 12.887C13.769 12.3441 13.3823 11.9315 12.753 11.9315C12.1236 11.9315 11.7125 12.3449 11.7125 12.887C11.7125 13.4183 12.1114 13.8425 12.7285 13.8425H12.7407ZM16.4984 20.1298V17.0405C16.4984 16.8751 16.5107 16.7097 16.5597 16.5918C16.6921 16.2618 16.9945 15.9196 17.5029 15.9196C18.1683 15.9196 18.4339 16.4265 18.4339 17.1706V20.1298H20.2722V16.957C20.2722 15.2573 19.3657 14.4672 18.156 14.4672C17.1806 14.4672 16.7434 15.0032 16.4984 15.3806V15.3998H16.4862C16.4902 15.3934 16.4943 15.387 16.4984 15.3806V14.5981H14.6609C14.6839 15.1172 14.6609 20.1298 14.6609 20.1298H16.4984Z" fill="#110A1D"/>

</symbol>
<symbol id="youtube"  viewBox="0 0 32 32"  xmlns="http://www.w3.org/2000/svg">

<path fill-rule="evenodd" clip-rule="evenodd" d="M0 16C0 24.8202 7.17648 32 16 32C24.8202 32 32 24.8202 32 16C32 7.17982 24.8202 0 16 0C7.17984 0 0 7.17982 0 16ZM5.94191 4.96936C8.59784 2.54552 12.1292 1.06554 16 1.06554C19.8696 1.06554 23.4 2.54462 26.0557 4.96715L24.8681 6.1547C22.5199 4.03823 19.4105 2.75 16 2.75C12.5883 2.75 9.47794 4.03912 7.12944 6.15689L5.94191 4.96936ZM4.96751 5.94395C2.54476 8.59964 1.06554 12.1302 1.06554 16C1.06554 19.8694 2.54451 23.3997 4.96688 26.0553L6.15441 24.8678C4.03812 22.5196 2.75 19.4104 2.75 16C2.75 12.5893 4.03837 9.47974 6.15505 7.13149L4.96751 5.94395ZM5.94122 27.03C8.59723 29.4542 12.1289 30.9344 16 30.9344C19.8692 30.9344 23.3992 29.4557 26.0548 27.0337L24.8672 25.8461C22.5191 27.9621 19.4101 29.25 16 29.25C12.5879 29.25 9.47731 27.9606 7.12874 25.8425L5.94122 27.03ZM30.9345 16C30.9345 19.8714 29.454 23.4033 27.0295 26.0593L25.842 24.8718C27.9604 22.5232 29.25 19.4123 29.25 16C29.25 12.5881 27.9607 9.47761 25.8428 7.12907L27.0303 5.94154C29.4543 8.5975 30.9345 12.129 30.9345 16Z" />
<path d="M14.6666 17.9999L18.1266 15.9999L14.6666 13.9999V17.9999ZM22.3733 12.7799C22.4599 13.0933 22.5199 13.5133 22.5599 14.0466C22.6066 14.5799 22.6266 15.0399 22.6266 15.4399L22.6666 15.9999C22.6666 17.4599 22.5599 18.5333 22.3733 19.2199C22.2066 19.8199 21.8199 20.2066 21.2199 20.3733C20.9066 20.4599 20.3333 20.5199 19.4533 20.5599C18.5866 20.6066 17.7933 20.6266 17.0599 20.6266L15.9999 20.6666C13.2066 20.6666 11.4666 20.5599 10.7799 20.3733C10.1799 20.2066 9.79325 19.8199 9.62659 19.2199C9.53992 18.9066 9.47992 18.4866 9.43992 17.9533C9.39325 17.4199 9.37325 16.9599 9.37325 16.5599L9.33325 15.9999C9.33325 14.5399 9.43992 13.4666 9.62659 12.7799C9.79325 12.1799 10.1799 11.7933 10.7799 11.6266C11.0933 11.5399 11.6666 11.4799 12.5466 11.4399C13.4133 11.3933 14.2066 11.3733 14.9399 11.3733L15.9999 11.3333C18.7933 11.3333 20.5333 11.4399 21.2199 11.6266C21.8199 11.7933 22.2066 12.1799 22.3733 12.7799Z" fill="#1E1231"/>

</symbol>
<symbol id="tiktok"  viewBox="0 0 32 32"  xmlns="http://www.w3.org/2000/svg">

<path fill-rule="evenodd" clip-rule="evenodd" d="M0 16C0 24.8202 7.17648 32 16 32C24.8202 32 32 24.8202 32 16C32 7.17982 24.8202 0 16 0C7.17984 0 0 7.17982 0 16ZM5.94191 4.96936C8.59784 2.54552 12.1292 1.06554 16 1.06554C19.8696 1.06554 23.4 2.54462 26.0557 4.96715L24.8681 6.1547C22.5199 4.03823 19.4105 2.75 16 2.75C12.5883 2.75 9.47794 4.03912 7.12944 6.15689L5.94191 4.96936ZM4.96751 5.94395C2.54476 8.59964 1.06554 12.1302 1.06554 16C1.06554 19.8694 2.54451 23.3997 4.96688 26.0553L6.15441 24.8678C4.03812 22.5196 2.75 19.4104 2.75 16C2.75 12.5893 4.03837 9.47974 6.15505 7.13149L4.96751 5.94395ZM5.94122 27.03C8.59723 29.4542 12.1289 30.9344 16 30.9344C19.8692 30.9344 23.3992 29.4557 26.0548 27.0337L24.8672 25.8461C22.5191 27.9621 19.4101 29.25 16 29.25C12.5879 29.25 9.47731 27.9606 7.12874 25.8425L5.94122 27.03ZM30.9345 16C30.9345 19.8714 29.454 23.4033 27.0295 26.0593L25.842 24.8718C27.9604 22.5232 29.25 19.4123 29.25 16C29.25 12.5881 27.9607 9.47761 25.8428 7.12907L27.0303 5.94154C29.4543 8.5975 30.9345 12.129 30.9345 16Z" />
<path fill-rule="evenodd" clip-rule="evenodd" d="M17.0125 9.9248C17.3853 9.9248 17.6875 10.227 17.6875 10.5998C17.6875 11.3159 17.972 12.0026 18.4783 12.509C18.9847 13.0153 19.6714 13.2998 20.3875 13.2998C20.7603 13.2998 21.0625 13.602 21.0625 13.9748C21.0625 14.3476 20.7603 14.6498 20.3875 14.6498C19.3887 14.6498 18.428 14.2809 17.6875 13.6185V18.6998C17.6875 19.3673 17.4896 20.0198 17.1187 20.5749C16.7479 21.1299 16.2208 21.5625 15.6041 21.8179C14.9874 22.0733 14.3088 22.1402 13.6541 22.01C12.9994 21.8797 12.398 21.5583 11.926 21.0863C11.454 20.6143 11.1326 20.0129 11.0024 19.3582C10.8721 18.7035 10.939 18.0249 11.1944 17.4082C11.4499 16.7915 11.8824 16.2644 12.4375 15.8936C12.9925 15.5227 13.645 15.3248 14.3125 15.3248C14.6853 15.3248 14.9875 15.627 14.9875 15.9998C14.9875 16.3726 14.6853 16.6748 14.3125 16.6748C13.912 16.6748 13.5205 16.7936 13.1875 17.0161C12.8545 17.2386 12.5949 17.5549 12.4416 17.9249C12.2884 18.2949 12.2483 18.7021 12.3264 19.0949C12.4045 19.4877 12.5974 19.8485 12.8806 20.1317C13.1638 20.4149 13.5246 20.6078 13.9174 20.6859C14.3103 20.764 14.7174 20.7239 15.0874 20.5707C15.4575 20.4174 15.7737 20.1578 15.9962 19.8248C16.2187 19.4918 16.3375 19.1003 16.3375 18.6998V10.5998C16.3375 10.227 16.6397 9.9248 17.0125 9.9248Z" fill="#110A1D"/>

</symbol>
<symbol id="telegram"  viewBox="0 0 32 32"  xmlns="http://www.w3.org/2000/svg">
#478BF9
<path fill-rule="evenodd" clip-rule="evenodd" d="M0 16C0 24.8202 7.17648 32 16 32C24.8202 32 32 24.8202 32 16C32 7.17982 24.8202 0 16 0C7.17984 0 0 7.17982 0 16ZM5.94191 4.96936C8.59784 2.54552 12.1292 1.06554 16 1.06554C19.8696 1.06554 23.4 2.54462 26.0557 4.96715L24.8681 6.1547C22.5199 4.03823 19.4105 2.75 16 2.75C12.5883 2.75 9.47794 4.03912 7.12944 6.15689L5.94191 4.96936ZM4.96751 5.94395C2.54476 8.59964 1.06554 12.1302 1.06554 16C1.06554 19.8694 2.54451 23.3997 4.96688 26.0553L6.15441 24.8678C4.03812 22.5196 2.75 19.4104 2.75 16C2.75 12.5893 4.03837 9.47974 6.15505 7.13149L4.96751 5.94395ZM5.94122 27.03C8.59723 29.4542 12.1289 30.9344 16 30.9344C19.8692 30.9344 23.3992 29.4557 26.0548 27.0337L24.8672 25.8461C22.5191 27.9621 19.4101 29.25 16 29.25C12.5879 29.25 9.47731 27.9606 7.12874 25.8425L5.94122 27.03ZM30.9345 16C30.9345 19.8714 29.454 23.4033 27.0295 26.0593L25.842 24.8718C27.9604 22.5232 29.25 19.4123 29.25 16C29.25 12.5881 27.9607 9.47761 25.8428 7.12907L27.0303 5.94154C29.4543 8.5975 30.9345 12.129 30.9345 16Z" />
<path d="M20.6437 11.1321C20.6437 11.1321 21.7768 10.6902 21.682 11.7633C21.6508 12.2052 21.3676 13.7519 21.1471 15.4246L20.3917 20.38C20.3917 20.38 20.3287 21.106 19.762 21.2322C19.1956 21.3582 18.3457 20.7904 18.1882 20.6641C18.0622 20.5693 15.8274 19.1489 15.0405 18.4547C14.82 18.2651 14.568 17.8865 15.072 17.4447L18.3769 14.2882C18.7546 13.9097 19.1323 13.0259 17.5585 14.099L13.1514 17.0973C13.1514 17.0973 12.6477 17.4132 11.7035 17.1291L9.65721 16.4976C9.65721 16.4976 8.90179 16.0242 10.1924 15.5509C13.3404 14.0675 17.2123 12.5525 20.6431 11.1321H20.6437Z" fill="#110A1D"/>

</symbol>
<symbol id="vk"  viewBox="0 0 32 32"  xmlns="http://www.w3.org/2000/svg">

<path fill-rule="evenodd" clip-rule="evenodd" d="M0 16C0 24.8202 7.17648 32 16 32C24.8202 32 32 24.8202 32 16C32 7.17982 24.8202 0 16 0C7.17984 0 0 7.17982 0 16ZM5.94191 4.96936C8.59784 2.54552 12.1292 1.06554 16 1.06554C19.8696 1.06554 23.4 2.54462 26.0557 4.96715L24.8681 6.1547C22.5199 4.03823 19.4105 2.75 16 2.75C12.5883 2.75 9.47794 4.03912 7.12944 6.15689L5.94191 4.96936ZM4.96751 5.94395C2.54476 8.59964 1.06554 12.1302 1.06554 16C1.06554 19.8694 2.54451 23.3997 4.96688 26.0553L6.15441 24.8678C4.03812 22.5196 2.75 19.4104 2.75 16C2.75 12.5893 4.03837 9.47974 6.15505 7.13149L4.96751 5.94395ZM5.94122 27.03C8.59723 29.4542 12.1289 30.9344 16 30.9344C19.8692 30.9344 23.3992 29.4557 26.0548 27.0337L24.8672 25.8461C22.5191 27.9621 19.4101 29.25 16 29.25C12.5879 29.25 9.47731 27.9606 7.12874 25.8425L5.94122 27.03ZM30.9345 16C30.9345 19.8714 29.454 23.4033 27.0295 26.0593L25.842 24.8718C27.9604 22.5232 29.25 19.4123 29.25 16C29.25 12.5881 27.9607 9.47761 25.8428 7.12907L27.0303 5.94154C29.4543 8.5975 30.9345 12.129 30.9345 16Z"/>
<path fill-rule="evenodd" clip-rule="evenodd" d="M9.31137 12.5404C9.37193 12.4521 9.46882 12.3999 9.57195 12.3999H11.7838C11.9078 12.3999 12.0208 12.4752 12.0742 12.5934C12.2088 12.8909 12.3395 13.1919 12.4688 13.4896C12.7691 14.1808 13.0619 14.8546 13.3769 15.4277C13.6001 15.8338 13.8229 16.1663 14.05 16.4024C14.1461 16.5023 14.2394 16.5812 14.3304 16.6409V13.8202L13.6679 12.9541C13.5899 12.8522 13.5743 12.7119 13.6278 12.5936C13.6812 12.4752 13.7942 12.3999 13.9183 12.3999H16.9929C17.1707 12.3999 17.3149 12.5523 17.3149 12.7402V15.9274C17.6826 15.544 17.9704 15.107 18.2332 14.6386C18.3845 14.3689 18.5247 14.0941 18.6684 13.8123C18.7032 13.7442 18.7381 13.6757 18.7735 13.6068C18.9534 13.2562 19.142 12.8984 19.3578 12.5528C19.4173 12.4573 19.5183 12.3999 19.6265 12.3999H21.7449C21.8448 12.3999 21.9391 12.4489 22 12.5326C22.061 12.6162 22.0817 12.725 22.0562 12.8271C21.6506 14.45 20.8611 15.5835 20.1084 16.6643C20.0786 16.707 20.049 16.7497 20.0194 16.7922C21.0413 17.7588 21.8603 18.9427 22.4219 20.2677C22.4665 20.373 22.4576 20.495 22.3983 20.5919C22.3389 20.6887 22.2372 20.7471 22.128 20.7471H19.7971C19.7199 20.7471 19.6453 20.7178 19.5868 20.6645C19.3405 20.4399 19.1286 20.1942 18.9333 19.9593C18.8933 19.9112 18.8543 19.8638 18.8158 19.8172C18.6622 19.631 18.5179 19.4561 18.3626 19.2915C18.065 18.976 17.7451 18.7185 17.3149 18.5742V20.4069C17.3149 20.5782 17.1943 20.7229 17.0335 20.7444C14.4193 21.095 12.6612 19.7367 11.477 17.9973C10.3388 16.3256 9.70433 14.2678 9.30257 12.9647C9.29012 12.9243 9.2779 12.8847 9.26589 12.8458C9.23389 12.7421 9.2508 12.6286 9.31137 12.5404ZM10.0159 13.0805C10.4201 14.3779 11.013 16.1508 11.9996 17.5998C13.0489 19.1409 14.517 20.2816 16.671 20.1001V18.1473C16.671 18.0481 16.7119 17.9539 16.7831 17.8892C16.8543 17.8246 16.9487 17.796 17.0415 17.811C17.8494 17.9411 18.3812 18.3473 18.8186 18.811C18.9906 18.9934 19.1527 19.1899 19.3075 19.3776C19.3444 19.4224 19.3809 19.4666 19.417 19.51C19.5818 19.7082 19.7436 19.8957 19.9196 20.0666H21.6159C21.0631 18.9341 20.3028 17.9269 19.3774 17.1045C19.2481 16.9896 19.2249 16.7886 19.3241 16.6441C19.4125 16.5155 19.5007 16.3886 19.5885 16.2624C20.2699 15.2822 20.9196 14.3477 21.314 13.0805H19.8021C19.6395 13.3538 19.4898 13.6382 19.3396 13.9312C19.3058 13.997 19.2719 14.0634 19.2379 14.1302C19.0936 14.4129 18.9457 14.7029 18.7871 14.9857C18.3922 15.6896 17.914 16.3813 17.1797 16.9341C17.0815 17.008 16.9525 17.0177 16.8454 16.9594C16.7383 16.901 16.671 16.7843 16.671 16.6569V13.0805H14.5926L14.9027 13.4859C14.949 13.5464 14.9743 13.6219 14.9743 13.6998V17.1197C14.9743 17.2168 14.9351 17.3092 14.8665 17.3738C14.7979 17.4384 14.7064 17.4689 14.6152 17.4577C14.2215 17.4093 13.885 17.1854 13.5985 16.8876C13.3125 16.5903 13.0561 16.1988 12.8201 15.7695C12.4889 15.1669 12.1747 14.4439 11.8684 13.739C11.7716 13.5162 11.6756 13.2953 11.58 13.0805H10.0159Z" fill="#110A1D"/>
<path d="M11.9996 17.5998C11.013 16.1508 10.4201 14.3779 10.0159 13.0805H11.58C11.6756 13.2953 11.7716 13.5162 11.8684 13.739C12.1747 14.4439 12.4889 15.1669 12.8201 15.7695C13.0561 16.1988 13.3125 16.5903 13.5985 16.8876C13.885 17.1854 14.2215 17.4093 14.6152 17.4577C14.7064 17.4689 14.7979 17.4384 14.8665 17.3738C14.9351 17.3092 14.9743 17.2168 14.9743 17.1197V13.6998C14.9743 13.6219 14.949 13.5464 14.9027 13.4859L14.5926 13.0805H16.671V16.6569C16.671 16.7843 16.7383 16.901 16.8454 16.9594C16.9525 17.0177 17.0815 17.008 17.1797 16.9341C17.914 16.3813 18.3922 15.6896 18.7871 14.9857C18.9457 14.7029 19.0936 14.4129 19.2379 14.1302C19.2719 14.0634 19.3058 13.997 19.3396 13.9312C19.4898 13.6382 19.6395 13.3538 19.8021 13.0805H21.314C20.9196 14.3477 20.2699 15.2822 19.5885 16.2624C19.5007 16.3886 19.4125 16.5155 19.3241 16.6441C19.2249 16.7886 19.2481 16.9896 19.3774 17.1045C20.3028 17.9269 21.0631 18.9341 21.6159 20.0666H19.9196C19.7436 19.8957 19.5818 19.7082 19.417 19.51C19.3809 19.4666 19.3444 19.4224 19.3075 19.3776C19.1527 19.1899 18.9906 18.9934 18.8186 18.811C18.3812 18.3473 17.8494 17.9411 17.0415 17.811C16.9487 17.796 16.8543 17.8246 16.7831 17.8892C16.7119 17.9539 16.671 18.0481 16.671 18.1473V20.1001C14.517 20.2816 13.0489 19.1409 11.9996 17.5998Z" fill="#110A1D"/>
</symbol>
</svg>
