<svg width="109" height="217" viewBox="0 0 109 217" fill="none" xmlns="http://www.w3.org/2000/svg">
<path d="M18.9593 202C-0.530389 182.51 -0.530389 150.801 18.9593 131.311C38.4491 111.822 70.1578 111.822 89.6475 131.311C109.137 150.801 109.137 182.51 89.6475 202C70.1578 221.489 38.4491 221.489 18.9593 202ZM87.2918 133.667C69.1008 115.476 39.506 115.476 21.3197 133.667C3.12866 151.858 3.12866 181.453 21.3197 199.639C39.5107 217.83 69.1055 217.83 87.2918 199.639C105.483 181.448 105.483 151.853 87.2918 133.667Z" fill="white"/>
<path d="M87.835 156.053C87.6596 155.877 87.5174 155.655 87.4369 155.408C85.7069 150.289 82.882 145.753 79.0428 141.914C75.2083 138.08 70.6677 135.255 65.5488 133.52C64.871 133.288 64.416 132.658 64.416 131.942V119.794C64.416 119.282 64.653 118.799 65.0559 118.481C65.4635 118.163 65.9896 118.054 66.4825 118.178C75.232 120.367 83.2422 124.908 89.6408 131.311C96.0394 137.715 100.58 145.72 102.77 154.47C102.893 154.967 102.779 155.493 102.466 155.901C102.149 156.309 101.665 156.541 101.154 156.541H89.0057C88.5507 156.541 88.1336 156.356 87.8255 156.048L87.835 156.053ZM81.3984 139.559C85.3134 143.474 88.2663 148.062 90.1906 153.209H98.9781C96.7694 145.853 92.7548 139.132 87.2899 133.667C81.825 128.202 75.1041 124.188 67.7528 121.984V130.771C72.9001 132.691 77.4881 135.644 81.4032 139.563L81.3984 139.559Z" fill="white"/>
<path d="M18.9579 201.999C12.5593 195.601 8.01389 187.591 5.82414 178.841C5.70091 178.344 5.81467 177.817 6.12749 177.415C6.44505 177.007 6.92848 176.775 7.44037 176.775H19.5883C20.304 176.775 20.9391 177.23 21.1666 177.907C22.8966 183.026 25.7215 187.562 29.5606 191.401C33.3951 195.236 37.9358 198.061 43.0547 199.795C43.7324 200.023 44.1874 200.658 44.1874 201.374V213.522C44.1874 214.034 43.9504 214.517 43.5475 214.835C43.1399 215.152 42.6138 215.261 42.1161 215.138C33.3666 212.948 25.3613 208.408 18.9579 202.009V201.999ZM9.6254 180.102C11.8341 187.458 15.8486 194.179 21.3135 199.644C26.7784 205.109 33.4994 209.123 40.8554 211.332V202.545C35.7081 200.625 31.12 197.672 27.205 193.757C23.29 189.842 20.3372 185.254 18.4128 180.107H9.6254V180.102Z" fill="white"/>
<path d="M64.9042 214.693C64.5914 214.38 64.416 213.958 64.416 213.512V201.365C64.416 200.649 64.871 200.014 65.5488 199.786C70.6677 198.056 75.2036 195.231 79.0428 191.392C82.882 187.553 85.7021 183.017 87.4368 177.898C87.6643 177.22 88.2995 176.765 89.0152 176.765H101.163C101.675 176.765 102.158 177.002 102.476 177.405C102.794 177.808 102.903 178.339 102.779 178.832C100.585 187.581 96.0441 195.587 89.6455 201.99C83.2469 208.394 75.2368 212.934 66.4873 215.124C65.9896 215.247 65.4635 215.133 65.0606 214.821C65.0085 214.773 64.9564 214.731 64.909 214.683L64.9042 214.693ZM67.7481 202.54V211.327C75.1041 209.119 81.825 205.104 87.2899 199.639C92.7548 194.174 96.7646 187.453 98.9781 180.097H90.1906C88.271 185.245 85.3182 189.828 81.3984 193.748C77.4834 197.663 72.8954 200.62 67.7481 202.54Z" fill="white"/>
<path d="M6.26093 156.053C6.21353 156.005 6.16615 155.953 6.12823 155.901C5.81067 155.498 5.70165 154.967 5.82488 154.47C8.01463 145.72 12.5553 137.71 18.9587 131.311C25.362 124.913 33.3674 120.367 42.1169 118.178C42.6146 118.054 43.1407 118.168 43.5435 118.481C43.9464 118.799 44.1835 119.282 44.1835 119.794V131.942C44.1835 132.658 43.7284 133.293 43.0507 133.52C37.9318 135.25 33.3958 138.075 29.5566 141.914C25.7222 145.749 22.8973 150.289 21.1626 155.408C20.9351 156.086 20.3 156.541 19.5843 156.541H7.4364C6.99087 156.541 6.56427 156.366 6.25618 156.057L6.26093 156.053ZM40.8514 121.984C33.4954 124.192 26.7744 128.207 21.3095 133.672C15.8446 139.137 11.8349 145.858 9.6214 153.214H18.4088C20.3284 148.066 23.2813 143.483 27.201 139.563C31.116 135.648 35.7041 132.695 40.8514 130.771V121.984Z" fill="white"/>
<g filter="url(#filter0_d_1_5987)">
<path d="M81.4026 139.559C66.463 124.619 42.1483 124.614 27.2087 139.559C12.2643 154.503 12.2691 178.813 27.2087 193.752C42.1483 208.692 66.4583 208.697 81.4026 193.752C96.3469 178.808 96.3422 154.498 81.4026 139.559Z" fill="white"/>
</g>
<path d="M68.1215 180.333L40.5938 180.516C39.4342 180.523 38.5004 181.47 38.5081 182.629L38.5146 183.61C38.5223 184.77 39.4686 185.704 40.6282 185.696L68.1558 185.513C69.3154 185.506 70.2493 184.559 70.2416 183.4L70.2351 182.419C70.2274 181.259 69.2811 180.325 68.1215 180.333Z" fill="#110A1D"/>
<path d="M44.3444 163.717C44.0458 163.717 43.7424 163.651 43.4675 163.518L41.3204 162.48C40.3867 162.025 39.9601 160.921 40.3488 159.958L41.3347 157.503C41.638 156.754 42.3537 156.266 43.1594 156.261C43.5054 156.261 43.8467 156.347 44.15 156.522L46.7095 157.982C47.1882 158.252 47.5342 158.721 47.6574 159.262C47.7807 159.802 47.6717 160.371 47.3588 160.826L45.9559 162.859C45.5909 163.39 44.9842 163.712 44.3396 163.712L44.3444 163.717Z" fill="#110A1D"/>
<path d="M64.1631 163.584C63.5185 163.584 62.9071 163.276 62.5374 162.75L61.1487 160.793C60.8264 160.342 60.7127 159.774 60.8264 159.233C60.9402 158.693 61.2814 158.219 61.7601 157.939L64.4001 156.389C64.6987 156.214 65.04 156.119 65.386 156.115C66.1918 156.11 66.917 156.588 67.2298 157.333L68.2251 159.717C68.6232 160.674 68.2109 161.788 67.2866 162.252L65.04 163.376C64.7699 163.508 64.4665 163.584 64.1679 163.584H64.1631Z" fill="#110A1D"/>
<path d="M42.1818 178.675C40.9732 178.685 39.8878 177.927 39.4754 176.789L34.8827 164.148C34.5888 164.29 34.276 164.399 33.9584 164.48C33.584 164.575 33.2048 164.622 32.8209 164.622C32.5981 164.622 32.3801 164.613 32.1668 164.584C29.7732 164.281 27.9579 162.229 27.9437 159.811C27.9248 157.138 30.086 154.948 32.7592 154.929C35.4324 154.91 37.6222 157.072 37.6364 159.745C37.6364 160.361 37.5321 160.954 37.3141 161.508C37.1956 161.812 37.0487 162.101 36.8781 162.376L45.6134 166.603L52.2964 156.92C52.0168 156.802 51.7466 156.655 51.4906 156.479C51.0072 156.152 50.5853 155.745 50.2441 155.266C49.6658 154.451 49.353 153.489 49.3483 152.493C49.3293 149.82 51.4906 147.63 54.1638 147.611C54.2823 147.611 54.4056 147.611 54.524 147.621C56.9176 147.782 58.8514 149.702 59.0268 152.095C59.1074 153.228 58.8088 154.313 58.1642 155.238C57.8229 155.721 57.4058 156.133 56.9271 156.46C56.6759 156.636 56.4057 156.783 56.1261 156.901L62.9276 166.485L71.5207 162.186C71.3595 161.878 71.2316 161.556 71.1368 161.219C71.023 160.811 70.9614 160.385 70.9614 159.954C70.9614 159.759 70.9709 159.565 70.9898 159.375C71.2647 156.939 73.3218 155.091 75.7722 155.076C78.4454 155.057 80.6352 157.219 80.6494 159.892C80.6683 162.442 78.6871 164.584 76.1419 164.76L75.8385 164.769C75.3456 164.769 74.8622 164.703 74.393 164.561C74.0896 164.466 73.7957 164.347 73.5208 164.196L69.2077 176.59C68.8143 177.732 67.7336 178.5 66.525 178.51L42.1818 178.671V178.675Z" fill="#110A1D"/>
<g filter="url(#filter1_d_1_5987)">
<path d="M104.56 43.0003V162.596C104.56 163.584 103.758 164.375 102.78 164.375C101.801 164.375 101 163.574 101 162.596V43.0003C101 42.0115 101.801 41.2205 102.78 41.2205C103.758 41.2205 104.56 42.0219 104.56 43.0003Z" fill="white"/>
</g>
<path d="M7.55962 44.7802V164.375C7.55962 165.364 6.7582 166.155 5.77979 166.155C4.80137 166.155 3.99989 165.354 3.99989 164.375V44.7802C3.99989 43.7914 4.80137 43.0003 5.77979 43.0003C6.7582 43.0003 7.55962 43.8018 7.55962 44.7802Z" fill="white"/>
<g filter="url(#filter2_d_1_5987)">
<path d="M104.979 49.3779C104.979 50.3632 104.162 51.1514 103.165 51.1514C102.168 51.1514 101.351 50.3528 101.351 49.3779C101.351 24.1134 80.3281 3.55736 54.4894 3.55736C28.6507 3.55736 7.62758 24.1134 7.62758 49.3779C7.62758 50.3632 6.81082 51.1514 5.81376 51.1514C4.8167 51.1514 4 50.3528 4 49.3779C4 22.1532 26.6566 0 54.5 0C82.3434 0 105 22.1532 105 49.3779H104.979Z" fill="white"/>
</g>
<defs>
<filter id="filter0_d_1_5987" x="12.0022" y="128.352" width="84.6069" height="84.6069" filterUnits="userSpaceOnUse" color-interpolation-filters="sRGB">
<feFlood flood-opacity="0" result="BackgroundImageFix"/>
<feColorMatrix in="SourceAlpha" type="matrix" values="0 0 0 0 0 0 0 0 0 0 0 0 0 0 0 0 0 0 127 0" result="hardAlpha"/>
<feOffset dy="4"/>
<feGaussianBlur stdDeviation="2"/>
<feComposite in2="hardAlpha" operator="out"/>
<feColorMatrix type="matrix" values="0 0 0 0 0 0 0 0 0 0 0 0 0 0 0 0 0 0 0.25 0"/>
<feBlend mode="normal" in2="BackgroundImageFix" result="effect1_dropShadow_1_5987"/>
<feBlend mode="normal" in="SourceGraphic" in2="effect1_dropShadow_1_5987" result="shape"/>
</filter>
<filter id="filter1_d_1_5987" x="97" y="41.2205" width="11.5598" height="131.155" filterUnits="userSpaceOnUse" color-interpolation-filters="sRGB">
<feFlood flood-opacity="0" result="BackgroundImageFix"/>
<feColorMatrix in="SourceAlpha" type="matrix" values="0 0 0 0 0 0 0 0 0 0 0 0 0 0 0 0 0 0 127 0" result="hardAlpha"/>
<feOffset dy="4"/>
<feGaussianBlur stdDeviation="2"/>
<feComposite in2="hardAlpha" operator="out"/>
<feColorMatrix type="matrix" values="0 0 0 0 0 0 0 0 0 0 0 0 0 0 0 0 0 0 0.25 0"/>
<feBlend mode="normal" in2="BackgroundImageFix" result="effect1_dropShadow_1_5987"/>
<feBlend mode="normal" in="SourceGraphic" in2="effect1_dropShadow_1_5987" result="shape"/>
</filter>
<filter id="filter2_d_1_5987" x="0" y="0" width="109" height="59.1514" filterUnits="userSpaceOnUse" color-interpolation-filters="sRGB">
<feFlood flood-opacity="0" result="BackgroundImageFix"/>
<feColorMatrix in="SourceAlpha" type="matrix" values="0 0 0 0 0 0 0 0 0 0 0 0 0 0 0 0 0 0 127 0" result="hardAlpha"/>
<feOffset dy="4"/>
<feGaussianBlur stdDeviation="2"/>
<feComposite in2="hardAlpha" operator="out"/>
<feColorMatrix type="matrix" values="0 0 0 0 0 0 0 0 0 0 0 0 0 0 0 0 0 0 0.25 0"/>
<feBlend mode="normal" in2="BackgroundImageFix" result="effect1_dropShadow_1_5987"/>
<feBlend mode="normal" in="SourceGraphic" in2="effect1_dropShadow_1_5987" result="shape"/>
</filter>
</defs>
</svg>
