<svg width="111" height="50" viewBox="0 0 111 50" fill="none" xmlns="http://www.w3.org/2000/svg">
<path d="M68.079 42.1696C58.445 32.5356 58.445 16.8617 68.079 7.22769C77.713 -2.4063 93.3869 -2.4063 103.021 7.22769C112.655 16.8617 112.655 32.5356 103.021 42.1696C93.3869 51.8036 77.713 51.8036 68.079 42.1696ZM101.857 8.3921C92.8645 -0.599927 78.2354 -0.599927 69.2458 8.3921C60.2537 17.3841 60.2537 32.0132 69.2458 41.0029C78.2378 49.9949 92.8668 49.9949 101.857 41.0029C110.849 32.0108 110.849 17.3818 101.857 8.3921Z" fill="white"/>
<path d="M102.125 19.4577C102.039 19.371 101.968 19.2609 101.929 19.1391C101.073 16.6088 99.677 14.3666 97.7792 12.4689C95.8838 10.5735 93.6394 9.17709 91.109 8.3196C90.774 8.20479 90.5491 7.89319 90.5491 7.53941V1.53458C90.5491 1.28154 90.6662 1.04256 90.8654 0.885589C91.0668 0.728615 91.3269 0.674732 91.5706 0.735647C95.8956 1.81806 99.855 4.06256 103.018 7.22781C106.181 10.3931 108.425 14.3502 109.508 18.6752C109.569 18.9212 109.512 19.1813 109.358 19.3827C109.201 19.5842 108.962 19.699 108.709 19.699H102.704C102.479 19.699 102.273 19.6077 102.121 19.4554L102.125 19.4577ZM98.9437 11.3044C100.879 13.2397 102.339 15.5076 103.29 18.052H107.633C106.542 14.4158 104.557 11.0936 101.856 8.39222C99.1545 5.69087 95.8323 3.70644 92.1985 2.61699V6.96072C94.7429 7.90959 97.0108 9.36921 98.946 11.3068L98.9437 11.3044Z" fill="white"/>
<path d="M68.0785 42.1698C64.9156 39.0069 62.6688 35.0474 61.5864 30.7224C61.5254 30.4764 61.5817 30.2164 61.7363 30.0172C61.8933 29.8157 62.1322 29.7009 62.3853 29.7009H68.3901C68.7439 29.7009 69.0578 29.9258 69.1703 30.2609C70.0255 32.7912 71.4218 35.0334 73.3196 36.9311C75.215 38.8265 77.4595 40.2229 79.9898 41.0804C80.3248 41.1928 80.5497 41.5068 80.5497 41.8606V47.8654C80.5497 48.1184 80.4326 48.3574 80.2334 48.5144C80.032 48.6714 79.7719 48.7252 79.5259 48.6643C75.2009 47.5819 71.2438 45.3374 68.0785 42.1745V42.1698ZM63.4654 31.3456C64.5571 34.9818 66.5416 38.304 69.2429 41.0054C71.9443 43.7068 75.2665 45.6912 78.9027 46.783V42.4392C76.3583 41.4904 74.0904 40.0308 72.1551 38.0955C70.2199 36.1603 68.7603 33.8924 67.8091 31.348H63.4654V31.3456Z" fill="white"/>
<path d="M90.7904 48.4439C90.6358 48.2892 90.5491 48.0807 90.5491 47.8605V41.8557C90.5491 41.5019 90.774 41.1879 91.109 41.0755C93.6394 40.2203 95.8815 38.824 97.7792 36.9262C99.677 35.0285 101.071 32.7863 101.928 30.256C102.041 29.921 102.355 29.696 102.709 29.696H108.714C108.967 29.696 109.206 29.8132 109.363 30.0123C109.52 30.2115 109.573 30.4739 109.512 30.7175C108.428 35.0425 106.183 38.9997 103.02 42.1649C99.8574 45.3302 95.8979 47.5747 91.5729 48.6571C91.3269 48.718 91.0668 48.6618 90.8677 48.5071C90.8419 48.4837 90.8162 48.4626 90.7927 48.4392L90.7904 48.4439ZM92.1961 42.4367V46.7804C95.8323 45.6886 99.1545 43.7042 101.856 41.0029C104.557 38.3015 106.539 34.9793 107.633 31.3431H103.29C102.341 33.8875 100.881 36.1531 98.9437 38.0906C97.0084 40.0259 94.7405 41.4878 92.1961 42.4367Z" fill="white"/>
<path d="M61.8023 19.4576C61.7788 19.4342 61.7554 19.4084 61.7367 19.3826C61.5797 19.1835 61.5258 18.9211 61.5867 18.6751C62.6691 14.3501 64.9136 10.3906 68.0789 7.22768C71.2441 4.06477 75.2013 1.81794 79.5263 0.735524C79.7723 0.674608 80.0323 0.730834 80.2315 0.885465C80.4306 1.04244 80.5478 1.28142 80.5478 1.53445V7.53929C80.5478 7.89307 80.3229 8.20701 79.9878 8.31947C77.4575 9.17463 75.2153 10.571 73.3176 12.4687C71.4222 14.3641 70.0258 16.6086 69.1683 19.139C69.0559 19.474 68.7419 19.6989 68.3882 19.6989H62.3833C62.1631 19.6989 61.9522 19.6122 61.7999 19.4599L61.8023 19.4576ZM78.9007 2.61687C75.2645 3.70866 71.9423 5.69309 69.241 8.39445C66.5396 11.0958 64.5575 14.418 63.4634 18.0542H67.8071C68.756 15.5098 70.2156 13.2442 72.1532 11.3067C74.0884 9.37143 76.3563 7.91181 78.9007 6.9606V2.61687Z" fill="white"/>
<path d="M98.9456 11.3044C91.5608 3.91957 79.5417 3.91723 72.1569 11.3044C64.7698 18.6915 64.7721 30.7082 72.1569 38.093C79.5417 45.4778 91.5584 45.4802 98.9456 38.093C106.333 30.7059 106.33 18.6892 98.9456 11.3044Z" fill="white"/>
<path d="M92.3805 31.4598L78.7732 31.55C78.2 31.5538 77.7384 32.0216 77.7422 32.5948L77.7455 33.0797C77.7493 33.6529 78.217 34.1145 78.7902 34.1107L92.3975 34.0205C92.9707 34.0167 93.4323 33.5489 93.4285 32.9757L93.4252 32.4907C93.4214 31.9175 92.9537 31.456 92.3805 31.4598Z" fill="#110A1D"/>
<path d="M80.627 23.2462C80.4794 23.2462 80.3295 23.2134 80.1936 23.1478L79.1323 22.6347C78.6707 22.4097 78.4598 21.8639 78.652 21.3882L79.1393 20.1746C79.2892 19.8045 79.643 19.5631 80.0413 19.5608C80.2123 19.5608 80.381 19.603 80.531 19.6896L81.7961 20.4113C82.0328 20.5448 82.2038 20.7768 82.2647 21.0438C82.3256 21.3109 82.2717 21.5921 82.1171 21.817L81.4236 22.8221C81.2432 23.0845 80.9433 23.2438 80.6247 23.2438L80.627 23.2462Z" fill="#110A1D"/>
<path d="M90.4238 23.1807C90.1052 23.1807 89.8029 23.0284 89.6202 22.7684L88.9337 21.8007C88.7744 21.5782 88.7182 21.297 88.7744 21.0299C88.8306 20.7628 88.9993 20.5285 89.236 20.3903L90.5409 19.6242C90.6885 19.5375 90.8572 19.4906 91.0283 19.4883C91.4266 19.486 91.785 19.7226 91.9397 20.0904L92.4317 21.2689C92.6285 21.7422 92.4246 22.2927 91.9678 22.5223L90.8572 23.0776C90.7237 23.1432 90.5737 23.1807 90.4261 23.1807H90.4238Z" fill="#110A1D"/>
<path d="M79.5581 30.6402C78.9607 30.6449 78.4242 30.2701 78.2203 29.7078L75.9501 23.4593C75.8048 23.5296 75.6502 23.5834 75.4932 23.6233C75.3081 23.6701 75.1207 23.6936 74.9309 23.6936C74.8208 23.6936 74.713 23.6889 74.6076 23.6748C73.4244 23.5249 72.5271 22.5104 72.5201 21.3155C72.5107 19.9941 73.579 18.9117 74.9004 18.9023C76.2218 18.893 77.3043 19.9613 77.3113 21.2827C77.3113 21.5873 77.2597 21.8802 77.152 22.1543C77.0934 22.3042 77.0208 22.4471 76.9364 22.583L81.2544 24.6729L84.5579 19.8864C84.4196 19.8278 84.2861 19.7552 84.1596 19.6685C83.9206 19.5068 83.7121 19.3053 83.5434 19.0687C83.2575 18.6657 83.1029 18.1901 83.1006 17.6981C83.0912 16.3767 84.1596 15.2943 85.481 15.2849C85.5395 15.2849 85.6005 15.2849 85.659 15.2896C86.8422 15.3693 87.7981 16.3181 87.8848 17.5013C87.9246 18.0612 87.777 18.5978 87.4584 19.0546C87.2897 19.2936 87.0835 19.4974 86.8469 19.6591C86.7227 19.7458 86.5892 19.8184 86.4509 19.877L89.813 24.6143L94.0606 22.4893C93.981 22.337 93.9177 22.1777 93.8709 22.0114C93.8147 21.8099 93.7842 21.599 93.7842 21.3858C93.7842 21.2897 93.7889 21.1937 93.7982 21.1C93.9341 19.8957 94.9509 18.982 96.1622 18.975C97.4836 18.9656 98.566 20.034 98.5731 21.3554C98.5824 22.6158 97.6031 23.6748 96.345 23.7615L96.195 23.7662C95.9514 23.7662 95.7124 23.7334 95.4804 23.6631C95.3305 23.6162 95.1852 23.5577 95.0493 23.4827L92.9173 29.6094C92.7228 30.174 92.1887 30.5536 91.5912 30.5582L79.5581 30.6379V30.6402Z" fill="#110A1D"/>
<path d="M23.8672 0L82.1329 0C82.6146 0 83 0.450307 83 1.00002C83 1.54973 82.6096 2 82.1329 2L23.8672 2C23.3854 2 23 1.54973 23 1.00002C23 0.450307 23.3905 0 23.8672 0Z" fill="white"/>
<path d="M22.8798 46.9999L81.997 46.9999C82.4858 46.9999 82.8768 47.3961 82.8768 47.8797C82.8768 48.3633 82.4807 48.7595 81.997 48.7595L22.8798 48.7595C22.391 48.7595 22 48.3633 22 47.8797C22 47.3961 22.3962 46.9999 22.8798 46.9999Z" fill="white"/>
<path d="M23.1679 0.0103035C23.6302 0.0103035 24 0.406525 24 0.890244C24 1.37397 23.6253 1.77022 23.1679 1.77022C11.3139 1.77022 1.6691 11.9695 1.6691 24.5052C1.6691 37.0408 11.3139 47.2401 23.1679 47.2401C23.6302 47.2401 24 47.6363 24 48.1201C24 48.6038 23.6253 49 23.1679 49C10.3942 49 0 38.0082 0 24.5C0 10.9918 10.3942 3.8147e-06 23.1679 3.8147e-06V0.0103035Z" fill="white"/>
</svg>
