<svg width="118" height="58" viewBox="0 0 118 58" fill="none" xmlns="http://www.w3.org/2000/svg">
<g filter="url(#filter0_dd_1_4743)">
<path d="M88.884 1.00811C102.39 1.00811 113.38 11.998 113.38 25.5039C113.38 39.0098 102.39 49.9998 88.884 49.9998C75.3781 49.9998 64.3882 39.0098 64.3882 25.5039C64.3882 11.998 75.3781 1.00811 88.884 1.00811ZM88.884 48.235C101.417 48.235 111.615 38.0374 111.615 25.5039C111.615 12.9705 101.417 2.77287 88.884 2.77287C76.3505 2.77287 66.1529 12.9705 66.1529 25.5039C66.1529 38.0374 76.3505 48.235 88.884 48.235Z" fill="#478BF9"/>
<path d="M29.0051 1.00669C29.4939 1.00669 29.8849 1.40284 29.8849 1.88648C29.8849 2.37012 29.4887 2.76631 29.0051 2.76631C16.4716 2.76631 6.27404 12.9639 6.27404 25.4974C6.27404 38.0308 16.4716 48.2284 29.0051 48.2284C29.4939 48.2284 29.8849 48.6246 29.8849 49.1082C29.8849 49.5919 29.4887 49.988 29.0051 49.988C15.4992 49.988 4.50928 38.9981 4.50928 25.4922C4.50928 11.9863 15.4992 0.996391 29.0051 0.996391V1.00669Z" fill="#478BF9"/>
<path d="M84.1711 21.1712C84.1711 22.0716 84.7834 22.8537 85.6581 23.0698L87.3199 23.4865V19.2109H86.1366C85.0561 19.2109 84.1763 20.0907 84.1763 21.1712H84.1711Z" fill="#478BF9"/>
<path d="M90.4575 31.7856H91.6409C92.7214 31.7856 93.6012 30.9058 93.6012 29.8253C93.6012 28.9249 92.9889 28.1429 92.1143 27.9268L90.4524 27.51V31.7856H90.4575Z" fill="#478BF9"/>
<path d="M88.8892 5.56641C77.8992 5.56641 68.9519 14.5086 68.9519 25.5037C68.9519 36.4988 77.8941 45.4409 88.8892 45.4409C99.8843 45.4409 108.826 36.4988 108.826 25.5037C108.826 14.5086 99.8843 5.56641 88.8892 5.56641ZM96.7509 22.3549H93.6072V20.7805C93.6072 19.9161 92.9023 19.2061 92.0328 19.2061H90.4584V24.2689L92.8818 24.876C95.1559 25.4471 96.7458 27.4794 96.7458 29.8256C96.7458 32.6399 94.4562 34.9295 91.6418 34.9295H90.4584V38.9118H87.3148V34.9295H85.7404C83.137 34.9295 81.0223 32.8149 81.0223 30.2115V28.6371H84.166V30.2115C84.166 31.0758 84.8709 31.7859 85.7404 31.7859H87.3148V26.7231L84.8914 26.1159C82.6173 25.5448 81.0275 23.5125 81.0275 21.1664C81.0275 18.352 83.317 16.0624 86.1314 16.0624H87.3148V12.0801H90.4584V16.0624H92.0328C94.6362 16.0624 96.7509 18.1771 96.7509 20.7805V22.3549Z" fill="#478BF9"/>
<path d="M28.6298 0.977688L87.747 0.977688C88.2358 0.977688 88.6268 1.37384 88.6268 1.85748C88.6268 2.34112 88.2307 2.7373 87.747 2.7373L28.6298 2.7373C28.141 2.7373 27.75 2.34112 27.75 1.85748C27.75 1.37384 28.1462 0.977688 28.6298 0.977688Z" fill="#478BF9"/>
<path d="M28.5011 48.2018L87.6184 48.2018C88.1072 48.2018 88.4982 48.598 88.4982 49.0816C88.4982 49.5653 88.102 49.9614 87.6184 49.9614L28.5011 49.9614C28.0123 49.9614 27.6213 49.5653 27.6213 49.0816C27.6213 48.598 28.0175 48.2018 28.5011 48.2018Z" fill="#478BF9"/>
</g>
<defs>
<filter id="filter0_dd_1_4743" x="0.509277" y="0.977783" width="116.871" height="57.022" filterUnits="userSpaceOnUse" color-interpolation-filters="sRGB">
<feFlood flood-opacity="0" result="BackgroundImageFix"/>
<feColorMatrix in="SourceAlpha" type="matrix" values="0 0 0 0 0 0 0 0 0 0 0 0 0 0 0 0 0 0 127 0" result="hardAlpha"/>
<feOffset dy="4"/>
<feGaussianBlur stdDeviation="2"/>
<feComposite in2="hardAlpha" operator="out"/>
<feColorMatrix type="matrix" values="0 0 0 0 0 0 0 0 0 0 0 0 0 0 0 0 0 0 0.25 0"/>
<feBlend mode="normal" in2="BackgroundImageFix" result="effect1_dropShadow_1_4743"/>
<feColorMatrix in="SourceAlpha" type="matrix" values="0 0 0 0 0 0 0 0 0 0 0 0 0 0 0 0 0 0 127 0" result="hardAlpha"/>
<feOffset dy="4"/>
<feGaussianBlur stdDeviation="2"/>
<feComposite in2="hardAlpha" operator="out"/>
<feColorMatrix type="matrix" values="0 0 0 0 0 0 0 0 0 0 0 0 0 0 0 0 0 0 0.25 0"/>
<feBlend mode="normal" in2="effect1_dropShadow_1_4743" result="effect2_dropShadow_1_4743"/>
<feBlend mode="normal" in="SourceGraphic" in2="effect2_dropShadow_1_4743" result="shape"/>
</filter>
</defs>
</svg>
