<svg xmlns="http://www.w3.org/2000/svg" width="109" height="50" fill="none" viewBox="0 0 109 50">
  <path fill="#478BF9" d="M24.584 49.39C11.08 49.39.09 38.4.09 24.892.089 11.387 11.079.397 24.584.397c13.506 0 24.496 10.99 24.496 24.496 0 13.506-10.99 24.496-24.496 24.496Zm0-47.228c-12.533 0-22.73 10.198-22.73 22.731 0 12.534 10.197 22.731 22.73 22.731 12.534 0 22.732-10.197 22.732-22.73 0-12.534-10.198-22.732-22.732-22.732ZM84.468 49.39a.88.88 0 1 1 0-1.76c12.534 0 22.731-10.197 22.731-22.73 0-12.534-10.197-22.731-22.73-22.731a.88.88 0 1 1 0-1.76c13.505 0 24.495 10.99 24.495 24.496 0 13.506-10.99 24.496-24.496 24.496v-.01Z"/>
  <path fill="#478BF9" d="M48.882 23.92H38.154v2.115h10.728v-2.114Zm-36.936 0H1.218v2.115h10.728v-2.114Zm14.33 14.325H24.16v10.727h2.114V38.245Zm0-37.261H24.16V11.71h2.114V.984Z"/>
  <path fill="#478BF9" d="M37.83 11.557c-7.337-7.337-19.237-7.337-26.58 0-7.336 7.337-7.336 19.238 0 26.58 7.338 7.337 19.238 7.337 26.58 0 7.337-7.337 7.337-19.238 0-26.58Zm-9.657 1.59c2.14.664 4.06 1.904 5.552 3.591l.288.324-.422.098c-1.117.263-2.31.479-3.545.638l-.221.031-.062-.216a16.244 16.244 0 0 0-.726-2.012 11.06 11.06 0 0 0-1.152-2.058l-.463-.633.751.232v.005ZM19.586 24.26l.01-.267c.052-1.626.232-3.18.54-4.61l.047-.226.231.02c2.706.237 5.598.226 8.289-.026l.231-.02.052.226c.314 1.446.494 3.005.54 4.636v.267h-9.94Zm9.94 1.194v.268c-.056 1.63-.236 3.19-.55 4.635l-.052.227-.231-.02a47.442 47.442 0 0 0-8.29-.027l-.23.021-.047-.226a25.79 25.79 0 0 1-.54-4.61l-.01-.268h9.95ZM24.556 12.7c1.497 0 3.02 1.899 3.972 4.96l.098.309-.324.026a45.882 45.882 0 0 1-7.502.02l-.324-.026.098-.313c.951-3.072 2.48-4.98 3.982-4.98v.004Zm-9.22 4.096a12.264 12.264 0 0 1 5.603-3.643l.756-.231-.468.638c-.422.576-.813 1.27-1.152 2.053a16.59 16.59 0 0 0-.736 2.047l-.062.211-.221-.026a35.018 35.018 0 0 1-3.581-.622l-.427-.098.288-.33Zm-3.005 7.188a12.285 12.285 0 0 1 1.863-5.665l.103-.16.185.047c1.317.334 2.737.602 4.23.792l.277.036-.057.278a27.059 27.059 0 0 0-.53 4.697v.252h-6.086l.02-.277h-.005Zm1.966 7.573-.103-.16a12.265 12.265 0 0 1-1.863-5.664l-.02-.278h6.081v.252a28.04 28.04 0 0 0 .535 4.698l.057.277-.278.037c-1.487.19-2.912.457-4.23.792l-.185.046h.006Zm6.642 5.012a12.264 12.264 0 0 1-5.603-3.643l-.288-.33.427-.097a36.473 36.473 0 0 1 3.58-.623l.222-.026.062.211c.216.741.463 1.43.736 2.048.344.787.73 1.477 1.152 2.058l.468.638-.756-.231v-.005Zm3.617.447c-1.502 0-3.03-1.909-3.982-4.98l-.098-.314.324-.026a46.227 46.227 0 0 1 7.502.02l.324.026-.098.31c-.957 3.055-2.48 4.959-3.972 4.959v.005Zm9.168-4.039a12.28 12.28 0 0 1-5.551 3.592l-.751.231.463-.633c.422-.576.808-1.27 1.152-2.058.273-.633.52-1.307.726-2.012l.062-.216.22.031c1.236.16 2.43.376 3.546.638l.422.103-.288.324Zm3.052-7.244a12.255 12.255 0 0 1-1.899 5.726l-.103.16-.185-.046a34.702 34.702 0 0 0-4.198-.819l-.278-.035.056-.273c.309-1.492.49-3.082.535-4.734v-.252h6.087l-.02.278.005-.005Zm-6.061-1.472v-.252a27.63 27.63 0 0 0-.54-4.733l-.057-.273.278-.036c1.482-.2 2.891-.473 4.198-.818l.185-.046.103.16a12.179 12.179 0 0 1 1.899 5.726l.02.277H30.72l-.005-.005ZM84.839 49.42H25.72a.88.88 0 1 1 0-1.76h59.12a.88.88 0 1 1 0 1.76Zm.134-47.232H25.855a.88.88 0 1 1 0-1.76h59.118a.88.88 0 1 1 0 1.76Z"/>
</svg>
